<svg xmlns="http://www.w3.org/2000/svg" viewBox="0 0 1758.02 339.17"><defs><style>.cls-1,.cls-2{fill:#4c4b4b;}.cls-2,.cls-3{fill-rule:evenodd;}.cls-3{fill:#009ca0;}</style></defs><g id="Camada_2" data-name="Camada 2"><g id="Camada_1-2" data-name="Camada 1"><polygon class="cls-1" points="1669.47 60.91 1613.28 339.17 1647 339.17 1684.8 153.55 1724.3 339.17 1758.03 339.17 1699.79 60.91 1669.47 60.91"></polygon><polygon class="cls-2" points="1404.94 60.91 1456.03 339.17 1498.95 339.17 1549.02 60.91 1515.64 60.91 1477.49 267.29 1438.33 60.91 1404.94 60.91"></polygon><rect class="cls-1" x="1278.69" y="60.9" width="32.7" height="278.26"></rect><polygon class="cls-2" points="1138.48 93.6 1182.07 93.6 1182.07 60.9 1061.5 60.9 1061.5 93.6 1105.78 93.6 1105.78 339.16 1138.48 339.16 1138.48 93.6"></polygon><polygon class="cls-2" points="589.23 60.91 640.32 339.17 683.23 339.17 733.29 60.91 699.92 60.91 661.78 267.29 622.61 60.91 589.23 60.91"></polygon><path class="cls-2" d="M431.3,307.14c-18.73,0-35.76-10.22-35.76-24.18V107.6c0-14,17-24.18,35.76-24.18,19.08,0,35.76,10.22,35.76,24.18V283c0,14-16.69,24.18-35.76,24.18M499.76,107.6c0-32-32-56.19-68.46-56.19-35.76,0-68.46,24.18-68.46,56.19V283c0,32,32.7,56.21,68.46,56.21,36.44,0,68.46-24.19,68.46-56.21Z"></path><polygon class="cls-2" points="167.46 155.93 232.5 339.16 262.82 339.16 262.82 60.9 230.12 60.9 230.12 238.69 170.18 60.9 134.76 60.9 134.76 339.16 167.46 339.16 167.46 155.93"></polygon><rect class="cls-1" y="60.9" width="32.69" height="278.26"></rect><polygon class="cls-3" points="897.21 61.62 841.54 339.16 808.64 339.16 876.72 0 917.19 0 988.18 339.16 954.85 339.16 897.21 61.62"></polygon></g></g></svg>